HIERARCHY
ROOT Pelvis
{
	OFFSET -0.217368 -24.078917 2.858379
	CHANNELS 6 Xposition Yposition Zposition Zrotation Yrotation Xrotation 
	JOINT Left_hip
	{
		OFFSET 5.858135 -8.228005 -1.766408
		CHANNELS 3 Zrotation Yrotation Xrotation
		JOINT Left_knee
		{
			OFFSET 4.345143 -38.646942 0.803700
			CHANNELS 3 Zrotation Yrotation Xrotation
			JOINT Left_ankle
			{
				OFFSET -1.479033 -42.687447 -3.742800
				CHANNELS 3 Zrotation Yrotation Xrotation
				JOINT Left_foot
				{
					OFFSET 4.105436 -6.028605 12.204244
					CHANNELS 3 Zrotation Yrotation Xrotation
					End Site
					{
						OFFSET 0.000000 0.000000 0.000000
					}
				}
			}
		}
	}
	JOINT Right_hip
	{
		OFFSET -6.030973 -9.051328 -1.354253
		CHANNELS 3 Zrotation Yrotation Xrotation
		JOINT Right_knee
		{
			OFFSET -4.325663 -38.368790 -0.484304
			CHANNELS 3 Zrotation Yrotation Xrotation
			JOINT Right_ankle
			{
				OFFSET 1.905555 -42.004566 -3.456167
				CHANNELS 3 Zrotation Yrotation Xrotation
				JOINT Right_foot
				{
					OFFSET -3.483987 -6.210554 13.032330
					CHANNELS 3 Zrotation Yrotation Xrotation
					End Site
					{
						OFFSET 0.000000 0.000000 0.000000
					}
				}
			}
		}
	}
	JOINT Spine1
	{
		OFFSET 0.443945 12.440353 -3.838522
		CHANNELS 3 Zrotation Yrotation Xrotation
		JOINT Spine2
		{
			OFFSET 0.448844 13.795640 2.682033
			CHANNELS 3 Zrotation Yrotation Xrotation
			JOINT Spine3
			{
				OFFSET -0.226460 5.603239 0.285504
				CHANNELS 3 Zrotation Yrotation Xrotation
				JOINT Neck
				{
					OFFSET -1.339018 21.163553 -3.346758
					CHANNELS 3 Zrotation Yrotation Xrotation
					JOINT Head
					{
						OFFSET 1.011321 8.893734 5.040987
						CHANNELS 3 Zrotation Yrotation Xrotation
						End Site
						{
							OFFSET 0.000000 0.000000 0.000000
						}
					}
				}
				JOINT Left_collar
				{
					OFFSET 7.170247 11.399971 -1.889817
					CHANNELS 3 Zrotation Yrotation Xrotation
					JOINT Left_shoulder
					{
						OFFSET 12.292140 4.520507 -1.904600
						CHANNELS 3 Zrotation Yrotation Xrotation
						JOINT Left_elbow
						{
							OFFSET 25.533188 -1.564902 -2.294648
							CHANNELS 3 Zrotation Yrotation Xrotation
							JOINT Left_wrist
							{
								OFFSET 26.570929 1.269810 -0.737473
								CHANNELS 3 Zrotation Yrotation Xrotation
								JOINT Left_palm
								{
									OFFSET 8.669054 -1.063602 -1.559429
									CHANNELS 3 Zrotation Yrotation Xrotation
									End Site
									{
										OFFSET 0.000000 0.000000 0.000000
									}
								}
							}
						}
					}
				}
				JOINT Right_collar
				{
					OFFSET -8.295364 11.247234 -2.370738
					CHANNELS 3 Zrotation Yrotation Xrotation
					JOINT Right_shoulder
					{
						OFFSET -11.322830 4.685326 -0.847207
						CHANNELS 3 Zrotation Yrotation Xrotation
						JOINT Right_elbow
						{
							OFFSET -26.012751 -1.436928 -3.126872
							CHANNELS 3 Zrotation Yrotation Xrotation
							JOINT Right_wrist
							{
								OFFSET -26.910841 0.679372 -0.602677
								CHANNELS 3 Zrotation Yrotation Xrotation
								JOINT Right_palm
								{
									OFFSET -8.875370 -0.865157 -1.010708
									CHANNELS 3 Zrotation Yrotation Xrotation
									End Site
									{
										OFFSET 0.000000 0.000000 0.000000
									}
								}
							}
						}
					}
				}
			}
		}
	}
}
MOTION
Frames: 5
Frame Time: 0.016667
0.041182 72.756050 1.468006 -0.412666 -0.141138 -6.040170 3.165992 0.542060 9.088394 -1.892787 0.272645 -3.733755 -0.443956 4.690843 14.391475 0.000000 0.000000 0.000000 -2.615415 -0.625800 8.871802 0.848481 -0.187642 -3.041906 1.491066 -3.523825 15.743384 0.000000 0.000000 0.000000 3.891606 -0.327034 3.947533 -1.166988 0.817652 -17.333591 -2.535771 4.642224 25.700722 3.730717 -2.889722 -0.472787 0.000000 0.000000 0.000000 20.100863 -25.241804 5.815239 9.928246 -39.371258 -4.724742 56.328107 -26.906303 -13.094147 0.000000 0.000000 0.000000 0.000000 0.000000 0.000000 -15.316520 20.750215 5.600873 -5.428451 35.479380 -3.297722 -63.683531 33.841499 -18.626808 0.000000 0.000000 0.000000 0.000000 0.000000 0.000000 
0.041081 72.686714 1.294648 -0.238261 -0.063328 -5.509491 3.022760 0.497972 8.212617 -2.004922 0.275787 -3.399125 -0.402942 4.670748 14.120336 0.000000 0.000000 0.000000 -2.688392 -0.599581 8.627905 1.050956 -0.223888 -3.710180 1.195732 -3.973462 15.515534 0.000000 0.000000 0.000000 4.350551 -0.288624 3.211526 -1.800926 1.010245 -17.231786 -2.460651 4.854072 26.066085 4.731145 -3.510764 -1.620751 0.000000 0.000000 0.000000 19.402435 -26.953200 6.208872 9.767860 -40.450328 -4.859231 56.547231 -29.090340 -14.285239 0.000000 0.000000 0.000000 0.000000 0.000000 0.000000 -14.093906 20.897373 5.760514 -5.234572 37.821201 -3.519769 -65.138520 35.836611 -20.453581 0.000000 0.000000 0.000000 0.000000 0.000000 0.000000 
0.043611 72.642288 1.144081 -0.193003 0.202539 -5.123148 2.918610 0.445578 7.288752 -1.961906 0.258508 -2.572261 -0.368525 4.509924 13.436333 0.000000 0.000000 0.000000 -2.564475 -0.577716 8.191183 1.111161 -0.226267 -3.641338 1.089188 -4.049254 15.175646 0.000000 0.000000 0.000000 4.587370 -0.306721 3.328583 -2.030848 1.079738 -17.082460 -2.402466 4.839672 25.690451 5.020524 -3.632881 -2.307316 0.000000 0.000000 0.000000 18.395873 -28.088173 6.577045 9.563018 -42.002624 -5.056689 57.415722 -30.727645 -15.424102 0.000000 0.000000 0.000000 0.000000 0.000000 0.000000 -12.882230 21.620924 6.058156 -4.806378 40.340852 -3.688906 -66.427126 36.563189 -21.452175 0.000000 0.000000 0.000000 0.000000 0.000000 0.000000 
0.050068 72.654846 1.019928 0.048978 0.498446 -4.896430 2.635657 0.406872 6.411229 -1.944065 0.247385 -2.006742 -0.484267 4.293540 13.339033 0.000000 0.000000 0.000000 -2.649722 -0.539442 7.801762 1.126630 -0.224811 -3.553251 0.806038 -4.393625 14.676943 0.000000 0.000000 0.000000 4.373800 -0.297673 3.315238 -1.958419 1.055445 -16.771704 -2.566206 4.784905 25.358180 5.496725 -3.794669 -3.631857 0.000000 0.000000 0.000000 17.832871 -29.456403 6.933428 9.149738 -43.195379 -5.127376 58.948825 -32.844606 -17.101832 0.000000 0.000000 0.000000 0.000000 0.000000 0.000000 -11.939524 22.329014 6.337853 -5.611995 42.116909 -4.145370 -67.360754 37.707155 -22.613283 0.000000 0.000000 0.000000 0.000000 0.000000 0.000000 
0.057615 72.657349 0.935281 0.130351 0.782409 -4.541991 2.548475 0.376901 5.893014 -2.165608 0.265653 -1.865561 -0.342552 4.470089 13.180367 0.000000 0.000000 0.000000 -2.568700 -0.511178 7.344387 0.996282 -0.213022 -3.486882 0.685516 -4.526421 14.416557 0.000000 0.000000 0.000000 4.694742 -0.306556 3.277510 -2.239115 1.142589 -16.774995 -2.754985 4.792546 25.137849 5.927980 -4.017982 -4.260762 0.000000 0.000000 0.000000 17.995427 -30.463155 7.094810 8.559673 -44.254445 -5.111724 59.360955 -34.918026 -18.410550 0.000000 0.000000 0.000000 0.000000 0.000000 0.000000 -11.889795 22.731427 6.442618 -6.072833 43.923447 -4.525130 -67.512955 38.893931 -23.488326 0.000000 0.000000 0.000000 0.000000 0.000000 0.000000 
